<?xml version="1.0" standalone="no"?>
<!DOCTYPE svg PUBLIC "-//W3C//DTD SVG 20010904//EN"
 "http://www.w3.org/TR/2001/REC-SVG-20010904/DTD/svg10.dtd">
<svg version="1.0" xmlns="http://www.w3.org/2000/svg"
 width="1500.000000pt" height="1500.000000pt" viewBox="0 0 1500.000000 1500.000000"
 preserveAspectRatio="xMidYMid meet">
<metadata>
Created by potrace 1.14, written by Peter Selinger 2001-2017
</metadata>
<g transform="translate(0.000000,1500.000000) scale(0.100000,-0.100000)"
fill="#000000" stroke="none">
<path d="M7168 14995 c-1 -2 -55 -6 -118 -9 -63 -4 -140 -8 -170 -11 -98 -9
-164 -15 -200 -19 -19 -3 -62 -7 -95 -11 -33 -3 -85 -10 -115 -15 -30 -5 -77
-12 -105 -15 -27 -4 -57 -8 -65 -10 -8 -3 -33 -7 -55 -10 -22 -4 -51 -8 -65
-11 -14 -2 -41 -7 -60 -10 -19 -3 -62 -12 -95 -19 -33 -8 -73 -16 -90 -19 -16
-3 -41 -8 -55 -11 -14 -4 -37 -8 -51 -11 -14 -3 -102 -25 -195 -50 -93 -24
-179 -47 -191 -49 -12 -3 -79 -23 -150 -46 -70 -22 -143 -45 -161 -50 -78 -24
-350 -126 -503 -189 -286 -119 -472 -209 -769 -372 -454 -249 -932 -588 -1355
-962 -110 -98 -494 -481 -592 -591 -106 -119 -245 -287 -328 -395 -28 -36 -52
-67 -55 -70 -7 -7 -131 -177 -160 -220 -13 -19 -27 -37 -30 -40 -3 -3 -9 -12
-15 -21 -5 -9 -38 -58 -72 -109 -35 -51 -63 -96 -63 -100 0 -5 -4 -10 -8 -12
-9 -3 -31 -38 -165 -268 -312 -533 -555 -1101 -726 -1695 -46 -159 -113 -433
-136 -550 -8 -44 -17 -91 -20 -105 -3 -14 -8 -38 -10 -55 -3 -16 -12 -66 -20
-110 -27 -151 -50 -329 -71 -540 -3 -33 -7 -76 -9 -95 -14 -130 -20 -341 -20
-635 1 -346 9 -531 30 -720 3 -22 7 -65 10 -95 5 -47 13 -110 30 -230 2 -14 6
-44 10 -68 4 -23 8 -52 10 -65 1 -12 6 -40 10 -61 4 -22 9 -47 10 -55 9 -87
82 -412 160 -711 67 -260 247 -758 365 -1015 10 -22 32 -69 48 -105 93 -206
234 -476 365 -695 130 -218 279 -439 440 -655 72 -96 134 -177 137 -180 4 -3
28 -32 55 -65 49 -61 132 -161 150 -181 6 -6 39 -44 75 -85 86 -98 486 -498
579 -580 41 -35 79 -69 85 -74 16 -15 127 -109 154 -131 13 -11 33 -27 45 -38
12 -10 38 -30 57 -45 19 -14 37 -28 40 -31 3 -3 50 -39 105 -80 55 -41 102
-78 105 -81 16 -19 512 -349 525 -349 2 0 39 -22 82 -48 298 -184 785 -419
1168 -562 352 -131 861 -279 1120 -325 48 -8 75 -14 93 -19 9 -3 33 -8 52 -10
19 -3 73 -12 120 -20 127 -22 184 -30 305 -45 144 -18 169 -21 230 -26 33 -3
78 -7 100 -10 263 -27 989 -27 1255 1 25 2 65 6 90 8 90 8 151 15 345 41 82
11 304 49 400 68 11 3 38 8 60 12 22 5 42 9 45 10 3 1 23 5 45 10 149 29 436
107 650 175 72 22 135 42 140 44 6 2 17 6 25 9 8 3 49 17 90 32 436 153 983
412 1337 632 34 21 100 61 146 90 151 93 603 412 627 442 3 4 25 22 50 41 60
46 214 176 325 274 114 101 490 477 575 575 36 41 70 79 76 85 90 95 343 420
496 636 87 124 288 433 288 444 0 2 23 41 50 85 28 44 50 83 50 85 0 2 16 33
36 68 38 66 220 427 247 488 8 19 26 60 40 90 150 333 320 824 407 1180 29
116 86 373 96 430 3 14 11 61 19 105 19 105 23 132 30 180 2 22 7 51 9 65 3
14 10 68 16 120 6 52 13 106 15 120 2 14 7 61 11 105 3 44 8 96 9 115 27 274
27 975 0 1235 -3 22 -7 65 -9 95 -3 30 -8 75 -11 100 -19 165 -27 232 -36 283
-6 33 -12 73 -14 90 -2 18 -8 57 -14 87 -5 30 -12 71 -16 90 -77 448 -266
1083 -452 1520 -80 188 -113 259 -192 420 -83 167 -168 327 -191 360 -10 14
-19 30 -20 35 -3 10 -76 137 -112 193 -10 15 -25 40 -34 56 -14 26 -196 303
-216 331 -4 6 -75 100 -157 210 -158 210 -163 216 -307 384 -50 58 -104 122
-120 141 -52 61 -507 513 -579 575 -38 33 -72 62 -75 65 -6 7 -115 99 -148
126 -13 11 -36 29 -50 42 -135 117 -570 425 -797 564 -923 565 -1974 932
-3015 1053 -30 4 -70 8 -88 10 -17 2 -89 9 -160 15 -70 6 -147 13 -172 16 -50
6 -816 15 -822 9z"/>
</g>
</svg>
